Coordinates
version=1
nRows=9
nColumns=36
inDegrees=yes

Units are S.I. units (second, meters, Newtons, ...)
If the header above contains a line with 'inDegrees', this indicates whether rotational values are in degrees (yes) or radians (no).

endheader
time	pelvis_tilt	pelvis_list	pelvis_rotation	pelvis_tx	pelvis_ty	pelvis_tz	hip_flexion_r	hip_adduction_r	hip_rotation_r	knee_angle_r	knee_angle_r_beta	ankle_angle_r	subtalar_angle_r	mtp_angle_r	hip_flexion_l	hip_adduction_l	hip_rotation_l	knee_angle_l	knee_angle_l_beta	ankle_angle_l	subtalar_angle_l	mtp_angle_l	lumbar_extension	lumbar_bending	lumbar_rotation	arm_flex_r	arm_add_r	arm_rot_r	elbow_flex_r	pro_sup_r	arm_flex_l	arm_add_l	arm_rot_l	elbow_flex_l	pro_sup_l
      0.00000000	     -8.54346954	      0.00145937	      0.23710370	      0.25565202	      1.03808876	     -0.10048906	      2.26613897	     -2.25075348	     -7.07163449	      0.24613342	      0.00429584	      3.56861848	      0.28716190	     -6.44698842	      4.75530036	     -1.89743387	      1.86528739	      5.66534301	      0.09887889	      0.45324720	     -6.42994259	     -6.44698842	      4.33090734	     -2.06712587	     19.07828535	    -47.57388793	    -10.25016591	    -10.03847603	     61.29855939	     94.80772126	     50.90765968	     -9.73906720	     36.90968799	    110.84466567	     86.92611253
      0.01666670	     -9.23296488	     -0.23847858	     -0.18661491	      0.25418319	      1.03465643	     -0.10030916	      2.95279847	     -2.23277636	     -6.22462048	      0.25448180	      0.00444155	      5.11595260	      2.28758926	     -6.82111558	      4.52124759	     -2.15110899	      3.51886446	      4.58231155	      0.07997642	      0.82718825	     -5.67063164	     -6.82111558	      5.84226098	     -0.55407110	     11.28620393	    -33.25392136	    -12.04068447	     -9.22644334	     46.99173688	    101.14481147	     54.01092965	    -11.49892168	     21.99865232	    138.78324490	     86.88358095
      0.03333330	     -9.40623761	     -0.25939710	     -0.47979908	      0.25432469	      1.03528434	     -0.10036575	      3.17850311	     -2.26833049	     -5.31053611	      0.26039070	      0.00454468	      5.77711886	      2.25305827	     -7.07074991	      4.32789959	     -2.13491942	      4.55134369	      4.21505921	      0.07356666	      1.35603469	     -6.26668227	     -7.07074991	      6.35006274	      0.58624574	      6.32407943	    -26.94307766	    -14.29397801	     -3.58371447	     42.90302128	     93.43393416	     56.08905871	    -18.94745019	     12.73164922	    147.27145856	     79.46594395
      0.05000000	     -9.62102450	     -0.33328168	     -0.61337298	      0.25350009	      1.03258245	     -0.10024381	      3.42470327	     -2.31399331	     -4.82734471	      0.26988190	      0.00471033	      6.13618081	      2.90740742	     -7.14743836	      4.25192680	     -2.26780754	      5.46840741	      3.81874241	      0.06664963	      1.75034176	     -6.18777784	     -7.14743836	      6.58749826	      0.84521353	      4.26962002	    -24.94465044	    -14.84866800	     -0.75071256	     42.79301722	     89.91795667	     57.89841696	    -22.84203138	      8.53328823	    148.37114383	     76.26049658
      0.06666670	     -9.58377179	     -0.28541380	     -0.89287440	      0.25414032	      1.03306663	     -0.10008129	      3.45026218	     -2.44145732	     -4.19208396	      0.27092812	      0.00472859	      6.97431193	      2.99584482	     -7.20190976	      4.01737840	     -2.30146323	      5.55560731	      3.56058892	      0.06214400	      2.39157576	     -6.06585971	     -7.20190976	      6.40169867	      0.67073127	      4.06109438	    -24.11438213	    -14.69372748	      0.57764124	     42.82150247	     87.24244674	     59.53705585	    -23.94512469	      8.74240870	    148.75359249	     74.50608228
      0.08333330	     -9.77755404	     -0.23753601	     -0.97627122	      0.25356623	      1.03176163	     -0.10003717	      3.65602174	     -2.59189233	     -3.87419944	      0.27438239	      0.00478888	      7.35462474	      3.13491480	     -7.30763952	      4.17143098	     -2.33760593	      5.62625844	      3.46532510	      0.06048133	      2.88253691	     -5.98145061	     -7.30763952	      6.81264002	      0.48758961	      3.46715053	    -23.15312783	    -15.55094283	      5.13734299	     42.69688904	     79.76075087	     60.26110629	    -24.53222895	      8.79933159	    149.02191056	     67.18728673
      0.10000000	     -9.75663683	     -0.19693033	     -1.03388138	      0.25413308	      1.03198936	     -0.10020258	      3.58701715	     -2.71869332	     -3.63608871	      0.27308064	      0.00476616	      7.62135487	      3.13223719	     -7.31735750	      4.11366782	     -2.35934614	      5.44738995	      3.40980462	      0.05951232	      3.30258499	     -5.78732872	     -7.31735750	      7.01275144	      0.49232370	      3.41208348	    -22.44099231	    -15.36426873	      4.91677049	     42.12145874	     78.95625807	     60.11533779	    -24.48082647	      8.97467281	    149.14457490	     67.15459342
      0.11666670	     -9.74037491	     -0.18897500	     -1.14450869	      0.25351668	      1.03157549	     -0.09996592	      3.54051442	     -2.77630076	     -3.34832807	      0.27587424	      0.00481491	      7.70847468	      3.06321114	     -7.34845579	      4.09294396	     -2.41052741	      5.05346950	      3.42847156	      0.05983812	      3.61662986	     -5.47680882	     -7.34845579	      7.21461000	      0.62565083	      3.49492173	    -21.98817477	    -15.09173641	      4.39902436	     41.44584751	     77.17216781	     60.02220103	    -24.13869045	      8.87582011	    149.19458842	     66.80764905
      0.13333330	     -9.67471325	     -0.12968414	     -1.04325682	      0.25403404	      1.03193469	     -0.10038813	      3.37627371	     -2.89533219	     -3.33613294	      0.27382075	      0.00477907	      7.74632053	      3.10434757	     -7.35832670	      4.04230595	     -2.36534449	      4.94607068	      3.45797106	      0.06035298	      3.85788889	     -5.23612878	     -7.35832670	      7.33744327	      0.71791805	      3.21816083	    -21.16304595	    -14.81375466	      3.42770200	     40.26054986	     76.30186808	     59.61949999	    -24.09327033	      8.40290137	    149.25365891	     66.83062662
